# xmcd CD database file
#
# Track frame offsets:
#	150
#	25205
#	46687
#	65472
#	95347
#	123328
#	163608
#	192941
#	212951
#
# Disc length: 3205 seconds
#
# Revision: 0
# Processed by: cddbd v1.5.2PL0 Copyright (c) Steve Scherf et al.
# Submitted via: CDex 1.85
#
DISCID=750c8309
DTITLE=Guillermo Klein y Los Guachos - Los Guachos Cristal
DYEAR=2019
DGENRE=Jazz
TTITLE0=Melodia de Arrabal
TTITLE1=Burrito Volver (3am)
TTITLE2=Nos Miraran Pasar
TTITLE3=A Orillas del Rin
TTITLE4=Burrito Cristal
TTITLE5=Volver
TTITLE6=Quien Te Ve
TTITLE7=Upstate
TTITLE8=Flores
EXTD=YEAR: 2019
EXTT0=
EXTT1=
EXTT2=
EXTT3=
EXTT4=
EXTT5=
EXTT6=
EXTT7=
EXTT8=
PLAYORDER=
